<svg fill="none" height="446" viewBox="0 0 512 446" width="512" xmlns="http://www.w3.org/2000/svg"><path d="m57.669 226.312h396.662v60.701h-396.662z" fill="#f69583"/><path d="m217.934 445.46h-105.734c-5.69 0-10.302-4.612-10.302-10.302v-128.52h126.338v128.52c0 5.69-4.612 10.302-10.302 10.302z" fill="#ffcec0"/><path d="m399.8 445.46h-105.734c-5.69 0-10.302-4.612-10.302-10.302v-128.52h126.338v128.52c0 5.69-4.612 10.302-10.302 10.302z" fill="#ffcec0"/><path d="m78.03 240.015-29.321-80.56c-4.743-13.031-19.151-19.749-32.181-15.007-13.031 4.744-19.75 19.152-15.007 32.183l29.321 80.56z" fill="#fdb0a0"/><path d="m48.71 159.459 29.32 80.557-31.354 11.412-29.32-80.557c-2.552-7.011-7.90499-12.199-14.32899-14.749 2.812-5.227 7.48699-9.481 13.50099-11.67 13.034-4.744 27.438 1.973 32.182 15.007z" fill="#f69583"/><path d="m481.157 257.19 29.321-80.56c4.743-13.031-1.976-27.439-15.006-32.181-13.031-4.743-27.439 1.976-32.181 15.006l-29.321 80.56z" fill="#fdb0a0"/><path d="m510.479 176.634-29.32 80.557-23.595-8.588 29.32-80.557c3.18-8.738 1.208-18.091-4.362-24.723 4.205-.75 8.652-.435 12.949 1.129 13.026 4.741 19.752 19.148 15.008 32.182z" fill="#f69583"/><path d="m446.84 230.782c52.578-52.71 52.541-138.059-.119-190.719-50.466-50.466-130.956-52.602-183.968-6.415-3.855 3.359-9.653 3.359-13.508 0-53.011-46.188-133.502-44.052-183.968 6.415-52.659 52.659-52.696 138.009-.119 190.719l184.289 184.294c3.618 3.618 9.485 3.618 13.103 0z" fill="#fb4a59"/><path d="m446.843 230.779-184.288 184.298c-3.618 3.618-9.493 3.618-13.11 0l-23.036-23.046 176.033-176.032c52.576-52.71 52.534-138.062-.124-190.72-9.451-9.452-19.964-17.21302-31.148-23.27302 27.654 4.092 54.276 16.78002 75.55 38.05302 52.658 52.669 52.699 138.01.123 190.72z" fill="#f82f40"/><path d="m83.844 275.197c-3.383-.49-6.085-3.066-6.736-6.422l-12.893-66.453c-3.018-15.602-19.222-24.889-34.24-19.541-12.207 4.348-19.148 17.265-16.672 29.984l14.302 73.474 6.563 33.713c9.796 50.325 58.534 83.18 108.859 73.384l20.47-3.985c4.356-.848 7.2-5.066 6.352-9.422l-5.447-27.981c-7.807-40.107-40.121-70.893-80.558-76.751z" fill="#ffdfd0"/><path d="m163.493 389.349-17.543 3.415-5.794-29.79c-7.81-40.105-40.125-70.894-80.563-76.746-3.382-.492-6.083-3.069-6.734-6.424l-12.898-66.456c-2.222-11.529-11.666-19.612-22.499-20.884 2.975-4.345 7.252-7.81 12.507-9.679 15.022-5.353 31.229 3.934 34.243 19.534l12.898 66.456c.651 3.355 3.352 5.932 6.734 6.424 40.438 5.852 72.753 36.641 80.553 76.746l5.45 27.976c.85 4.358-1.995 8.58-6.354 9.428z" fill="#ffcec0"/><path d="m428.156 275.197c3.383-.49 6.085-3.066 6.736-6.422l12.893-66.453c3.018-15.602 19.222-24.889 34.24-19.541 12.207 4.348 19.148 17.265 16.672 29.984l-14.302 73.474-6.563 33.713c-9.796 50.325-58.534 83.18-108.859 73.384l-20.47-3.985c-4.356-.848-7.2-5.066-6.352-9.422l5.447-27.981c7.807-40.107 40.12-70.893 80.558-76.751z" fill="#ffdfd0"/><path d="m498.696 212.761-14.298 73.477-6.567 33.715c-9.796 50.322-58.533 83.176-108.856 73.379l-9.708-1.889c44.421 1.047 84.438-30.006 93.217-75.092l6.557-33.715 14.308-73.467c1.948-9.992-1.928-20.111-9.591-26.081 5.608-2.221 12.047-2.525 18.271-.303 12.204 4.345 19.143 17.263 16.667 29.976z" fill="#ffcec0"/><g fill="#ee2d3d"><rect height="254" rx="3" width="30" x="233" y="68"/><rect height="146" rx="3" transform="matrix(0 -1 1 0 32 318)" width="30" x="175" y="143"/></g></svg>